:SAMPLES-PER-SECOND 30
:FULLY-SPECIFIED
:DEGREES
254
root  -10.1625 40.4076 4.74975 -174.975 -49.8398 175.194
RightUpLeg  -15.2673 -4.21723 -5.12144
RightLeg  17.044 6.02506 1.77987
RightFoot  -2.28924 -0.054304 0.626159
RightToes  -2.9104e-010 0 -3.6325e-017
Spine  15.1549 -1.68984 5.43689
Spine1  21.3908 -1.37102 0.461878
HEad  -14.2968 16.9046 1.27075
LeftShoulder1  9.17272 -14.4236 -44.5698
LeftArm  -6.74942 5.4376 -28.7917
LeftForeArm  38.6751 -34.2141 -5.40163
LeftHand  -0.244104 0.0205437 5.32207
RightShoulder  5.68002 10.1103 35.7456
RightArm  -35.6019 20.5135 9.24283
RightForeArm  69.9692 78.3557 101.002
RightHand  -0.803173 1.88135 -12.9692
LeftUpLeg  -3.92017 13.3646 8.79767
LeftLeg  8.9253 23.0832 -1.12775
LeftFoot  0.368763 0.61194 -5.98722
LeftToes  -1.62803e-010 -2.57217e-011 -2.5681e-011
255
root  -10.1514 40.3861 4.71492 -175.029 -51.5989 174.984
RightUpLeg  -14.9117 -5.26544 -5.26208
RightLeg  17.5448 5.34602 1.6573
RightFoot  -2.73922 -0.0553053 0.622117
RightToes  -2.9104e-010 0 -3.6325e-017
Spine  15.2672 -1.85151 5.54344
Spine1  21.3747 -1.61658 0.699915
HEad  -13.9113 15.993 1.37939
LeftShoulder1  9.17909 -14.3999 -44.6639
LeftArm  -6.88631 5.49425 -28.7951
LeftForeArm  38.943 -34.5984 -5.48235
LeftHand  -0.244104 0.0205437 5.32207
RightShoulder  5.60168 9.97841 35.5765
RightArm  -34.931 19.5131 10.2293
RightForeArm  72.7198 78.2015 104.14
RightHand  -0.81995 1.8744 -13.2437
LeftUpLeg  -4.41103 13.7597 8.55258
LeftLeg  9.50124 20.9585 -0.702715
LeftFoot  0.327567 0.601111 -5.90022
LeftToes  -1.62803e-010 -2.57217e-011 -2.5681e-011
256
root  -10.1285 40.3636 4.70047 -174.98 -53.7337 174.729
RightUpLeg  -14.5691 -6.72768 -5.43188
RightLeg  18.0271 4.72042 1.53531
RightFoot  -3.1893 -0.052842 0.552966
RightToes  -2.9104e-010 0 -3.6325e-017
Spine  15.272 -2.0071 5.65404
Spine1  21.4655 -1.88197 0.993162
HEad  -13.4773 14.7005 1.54811
LeftShoulder1  9.16707 -14.3673 -44.6878
LeftArm  -7.02914 5.37783 -28.9139
LeftForeArm  39.277 -35.2514 -5.62787
LeftHand  -0.244104 0.0205437 5.32207
RightShoulder  5.50869 9.78962 35.4698
RightArm  -34.0264 18.4889 11.3775
RightForeArm  75.2182 78.0308 106.953
RightHand  -0.875492 2.08605 -13.7406
LeftUpLeg  -5.13844 13.9857 8.18769
LeftLeg  10.1005 18.6675 -0.26024
LeftFoot  0.341607 0.586381 -5.75019
LeftToes  -1.62803e-010 -2.57217e-011 -2.5681e-011
257
root  -10.106 40.3442 4.70706 -174.792 -56.2433 174.399
RightUpLeg  -14.1888 -8.65973 -5.66546
RightLeg  18.4193 4.19386 1.43096
RightFoot  -3.64072 -0.0558945 0.565485
RightToes  -2.9104e-010 0 -3.6325e-017
Spine  15.1937 -2.17872 5.82483
Spine1  21.5095 -2.15223 1.26125
HEad  -12.9836 13.0444 1.76453
LeftShoulder1  9.13784 -14.326 -44.6469
LeftArm  -7.19719 5.24172 -29.1213
LeftForeArm  39.8027 -36.1889 -5.83857
LeftHand  -0.244104 0.0205437 5.32207
RightShoulder  5.45296 9.65828 35.46
RightArm  -32.7933 17.2476 12.7402
RightForeArm  77.9598 77.8599 109.557
RightHand  -0.924245 2.28396 -14.1315
LeftUpLeg  -5.98226 13.929 7.73886
LeftLeg  10.5515 16.3292 0.0247054
LeftFoot  0.425402 0.562706 -5.48466
LeftToes  -1.62803e-010 -2.57217e-011 -2.5681e-011
258
root  -10.0893 40.3326 4.72921 -174.469 -59.0917 174.005
RightUpLeg  -13.7388 -10.7406 -5.94732
RightLeg  18.6609 3.50364 1.25207
RightFoot  -4.03512 -0.0694374 0.744268
RightToes  -2.9104e-010 0 -3.6325e-017
Spine  15.0642 -2.34894 6.02662
Spine1  21.4378 -2.45047 1.60898
HEad  -12.5166 11.1376 1.78662
LeftShoulder1  9.14679 -14.2923 -44.7811
LeftArm  -7.32358 5.17798 -29.1995
LeftForeArm  40.5628 -37.4771 -6.13462
LeftHand  -0.244104 0.0205437 5.32207
RightShoulder  5.43502 9.62351 35.4337
RightArm  -31.1353 15.8829 14.4732
RightForeArm  79.8533 77.7242 111.363
RightHand  -0.969921 2.40876 -14.5844
LeftUpLeg  -6.83711 13.4166 7.27222
LeftLeg  10.731 14.1335 0.10323
LeftFoot  0.628317 0.542248 -5.20785
LeftToes  -1.62803e-010 -2.57217e-011 -2.5681e-011
259
root  -10.0713 40.3308 4.75935 -173.997 -62.1075 173.512
RightUpLeg  -13.2329 -12.6056 -6.26459
RightLeg  18.7634 2.48591 0.946782
RightFoot  -4.32722 -0.089549 1.03581
RightToes  -2.9104e-010 0 -3.6325e-017
Spine  14.8804 -2.43485 6.20838
Spine1  21.3762 -2.68448 2.01475
HEad  -12.065 9.07615 1.57788
LeftShoulder1  9.20766 -14.2893 -45.1
LeftArm  -7.38678 5.15221 -29.1157
LeftForeArm  41.5007 -39.0634 -6.51341
LeftHand  -0.244104 0.0205437 5.32207
RightShoulder  5.46271 9.66833 35.5017
RightArm  -29.1272 14.8802 16.4431
RightForeArm  79.0547 77.7437 110.933
RightHand  -1.04914 2.64546 -15.2996
LeftUpLeg  -7.61563 12.4691 6.83466
LeftLeg  10.6167 12.206 -0.000353489
LeftFoot  1.00374 0.537246 -5.02299
LeftToes  -1.62803e-010 -2.57217e-011 -2.5681e-011
260
root  -10.05 40.3374 4.79444 -173.349 -65.0836 172.819
RightUpLeg  -12.6556 -14.2635 -6.6505
RightLeg  18.7763 1.33463 0.602058
RightFoot  -4.54604 -0.109213 1.33859
RightToes  -2.9104e-010 0 -3.6325e-017
Spine  14.6537 -2.36483 6.41336
Spine1  21.4538 -2.67741 2.24249
HEad  -11.5104 6.88768 1.4453
LeftShoulder1  9.25566 -14.311 -45.2873
LeftArm  -7.40554 5.07994 -29.1115
LeftForeArm  42.4871 -40.6966 -6.92037
LeftHand  -0.244104 0.0205437 5.32207
RightShoulder  5.58489 9.82175 35.9305
RightArm  -27.0541 14.6528 18.2539
RightForeArm  75.3325 77.9946 107.345
RightHand  -1.14448 3.07522 -15.8474
LeftUpLeg  -8.20929 11.4163 6.4421
LeftLeg  10.2439 10.4233 -0.301584
LeftFoot  1.52798 0.539622 -4.8664
LeftToes  -1.62803e-010 -2.57217e-011 -2.5681e-011
261
root  -10.0344 40.3491 4.83945 -172.505 -68.0088 171.88
RightUpLeg  -11.9635 -15.9533 -7.13221
RightLeg  18.7182 0.251657 0.319333
RightFoot  -4.73821 -0.127483 1.64743
RightToes  -2.9104e-010 0 -3.6325e-017
Spine  14.4236 -2.16094 6.7359
Spine1  21.6112 -2.395 2.18264
HEad  -10.8258 4.59152 1.61388
LeftShoulder1  9.24003 -14.3192 -45.1858
LeftArm  -7.3866 4.91731 -29.3384
LeftForeArm  43.4149 -42.1059 -7.28399
LeftHand  -0.244104 0.0205437 5.32207
RightShoulder  5.80684 10.1108 36.652
RightArm  -25.1927 15.3104 19.7838
RightForeArm  69.2663 78.3788 100.33
RightHand  -1.20526 3.57539 -15.776
LeftUpLeg  -8.61037 10.4878 6.08072
LeftLeg  9.69713 8.58663 -0.769046
LeftFoot  2.11196 0.533671 -4.63317
LeftToes  -1.62803e-010 -2.57217e-011 -2.5681e-011
262
root  -10.0285 40.362 4.90388 -171.408 -71.0307 170.696
RightUpLeg  -11.1652 -17.713 -7.68533
RightLeg  18.5826 -0.865275 0.0860543
RightFoot  -4.89264 -0.148804 2.04999
RightToes  -2.9104e-010 0 -3.6325e-017
Spine  14.2084 -1.89886 7.21501
Spine1  21.722 -1.96597 1.96576
HEad  -10.1373 2.23458 1.93624
LeftShoulder1  9.19781 -14.3038 -45.0114
LeftArm  -7.37045 4.67763 -29.6555
LeftForeArm  44.2698 -43.1991 -7.56989
LeftHand  -0.244104 0.0205437 5.32207
RightShoulder  6.03397 10.4564 37.2073
RightArm  -23.6481 16.9107 21.2793
RightForeArm  59.5908 78.6138 89.2072
RightHand  -1.28952 4.24127 -15.7292
LeftUpLeg  -8.96682 9.51664 5.69933
LeftLeg  9.09306 6.72578 -1.22835
LeftFoot  2.71006 0.521163 -4.36186
LeftToes  -1.62803e-010 -2.57217e-011 -2.5681e-011
263
root  -10.0275 40.3746 4.99169 -169.881 -74.1413 169.124
RightUpLeg  -10.3221 -19.3483 -8.28375
RightLeg  18.4034 -2.1464 -0.159238
RightFoot  -4.98075 -0.176262 2.56112
RightToes  -2.9104e-010 0 -3.6325e-017
Spine  13.9951 -1.58794 7.84433
Spine1  21.8017 -1.42221 1.63467
HEad  -9.54447 -0.156735 2.187
LeftShoulder1  9.19409 -14.3203 -44.9489
LeftArm  -7.4064 4.40122 -29.869
LeftForeArm  44.9785 -43.9707 -7.77167
LeftHand  -0.244104 0.0205437 5.32207
RightShoulder  6.16342 10.7372 37.2616
RightArm  -22.4769 19.5219 22.7839
RightForeArm  44.7527 78.1729 73.8296
RightHand  -1.57339 5.47948 -16.9592
LeftUpLeg  -9.36916 8.31149 5.24116
LeftLeg  8.50374 5.02152 -1.53076
LeftFoot  3.33784 0.513843 -4.14615
LeftToes  -1.62803e-010 -2.57217e-011 -2.5681e-011
